<?xml version="1.0" encoding="UTF-8" standalone="no"?>
<svg
   width="450"
   height="84"
   xml:space="preserve"
   overflow="hidden"
   version="1.1"
   id="svg14"
   sodipodi:docname="OpenCloudMesh.svg"
   inkscape:export-filename="OpenCloudMesh-horizontal.svg"
   inkscape:export-xdpi="96"
   inkscape:export-ydpi="96"
   xmlns:inkscape="http://www.inkscape.org/namespaces/inkscape"
   xmlns:sodipodi="http://sodipodi.sourceforge.net/DTD/sodipodi-0.dtd"
   xmlns="http://www.w3.org/2000/svg"
   xmlns:svg="http://www.w3.org/2000/svg"><sodipodi:namedview
     id="namedview14"
     pagecolor="#505050"
     bordercolor="#eeeeee"
     borderopacity="1"
     inkscape:showpageshadow="0"
     inkscape:pageopacity="0"
     inkscape:pagecheckerboard="0"
     inkscape:deskcolor="#505050"
     showgrid="false"><inkscape:page
       x="0"
       y="0"
       width="450"
       height="84"
       id="page2"
       margin="0"
       bleed="0" /></sodipodi:namedview><defs
     id="defs1" /><g
     id="g17"><path
       d="M 42.109109,0.0467 C 18.852948,0.0468 2.62608e-4,18.8298 1.62237e-4,42.0004 2.62608e-4,65.1704 18.852948,83.9524 42.109109,83.9534 65.36507,83.9524 84.217755,65.1704 84.218758,42.0004 84.217755,18.8298 65.36507,0.0468 42.109109,0.0467 Z M 60.59544,17.6606 c 1.118133,-10e-5 2.024483,0.903 2.024483,2.017 0,0 0,10e-5 0,2e-4 -0.005,0.6984 -0.37338,1.3442 -0.972595,1.7072 l 3.586256,40.8954 c 0.866201,0.246 1.465416,1.032 1.470435,1.93 0,1.114 -0.90635,2.017 -2.024483,2.017 0,0 0,0 0,0 -0.732709,-0.003 -1.407202,-0.401 -1.762515,-1.039 h -5.396949 c -0.349291,0.652 -1.028802,1.063 -1.770544,1.069 -1.118133,0 -2.024483,-0.903 -2.024483,-2.017 0,0 0,0 0,0 0.006,-0.377 0.118438,-0.745 0.323194,-1.061 l -0.89029,-21.999 -6.072446,21.328 c 0.480777,0.384 0.759809,0.963 0.759809,1.575 0,1.114 -0.90635,2.017 -2.024483,2.017 0,0 -0.001,0 -0.001,0 -0.495833,-0.025 -0.966573,-0.231 -1.320883,-0.58 -1.507572,0.027 -4.210362,0.07 -5.391629,0.034 -0.332027,0.273 -0.744451,0.431 -1.174742,0.449 -1.092036,0 -1.977208,-0.882 -1.977208,-1.97 0,0 0,0 0,0 0.02489,-0.54 0.271704,-1.045 0.682222,-1.399 l -6.108579,-21.451 -0.895009,22.096 c 0.155776,0.284 0.238683,0.603 0.241694,0.926 0,1.088 -0.885172,1.97 -1.977209,1.97 0,0 0,0 0,0 -0.707314,0 -1.360729,-0.376 -1.713634,-0.987 h -5.418227 c -0.353808,0.604 -1.002405,0.976 -1.7043,0.977 -1.092036,0 -1.977308,-0.882 -1.977308,-1.97 0,0 0,0 0,0 0.0283,-0.827 0.571914,-1.548 1.361031,-1.805 l 3.602917,-41.0976 c -0.575728,-0.3493 -0.933049,-0.9667 -0.948205,-1.6381 0,-1.0879 0.885172,-1.9699 1.977208,-1.9699 0,0 0,0 1.01e-4,0 0.674794,0.0011 1.302615,0.345 1.664954,0.9124 h 8.570278 c 0.357421,-0.4403 0.887882,-0.7059 1.455681,-0.7292 1.091936,-10e-5 1.977208,0.8819 1.977208,1.9698 0,10e-5 0,10e-5 0,10e-5 -0.02489,0.5093 -0.247013,0.9891 -0.619791,1.3386 l 0.04055,1.0345 5.677185,21.3184 5.677987,-21.3207 0.03914,-0.985 c -0.384421,-0.3612 -0.607245,-0.8601 -0.619289,-1.3858 0,-1.0879 0.885272,-1.9699 1.977308,-1.9699 0,0 0,0 0,0 0.596204,0 1.159285,0.268 1.535677,0.7292 h 8.460271 c 0.365351,-0.5745 0.997688,-0.9267 1.680211,-0.9366 z m -35.653486,3.7625 4.760296,9.672 c 0.02871,-0.0083 0.05761,-0.016 0.08672,-0.0229 l 3.801753,-9.6491 z m 25.155683,0 3.781979,9.5972 c 0.04517,0.0038 0.09033,0.0092 0.135501,0.0161 l 4.731489,-9.6133 z m -15.337893,1.3363 -3.628312,8.7493 c 0.47054,0.3575 0.755593,0.9062 0.776972,1.4953 -0.0028,0.4151 -0.137207,0.8187 -0.383919,1.1532 l 4.058502,5.3947 z m 14.169574,0 -0.823042,16.7925 4.068037,-5.4086 c -0.232861,-0.3254 -0.362339,-0.7123 -0.375388,-1.1116 0.02409,-0.5876 0.304124,-1.1358 0.765831,-1.501 z m -23.928446,2.1783 1.236069,16.9007 2.620084,-7.2135 c -0.553345,-0.3566 -0.891896,-0.9644 -0.903138,-1.6209 0.02128,-0.4502 0.196727,-0.8796 0.497238,-1.2165 z m 33.685511,0.0024 -3.387521,6.7265 c 0.348287,0.37 0.545015,0.8574 0.549029,1.3651 -0.006,0.699 -0.374383,1.3455 -0.974602,1.7083 l 2.578531,7.0984 z M 23.64225,27.6403 20.667153,57.0874 25.15464,44.5424 Z m 36.40416,0.0069 -1.512591,16.8952 4.48558,12.541 z m -12.836447,2.6081 -4.207552,16.0811 3.777964,-5.022 z m -10.730864,0.0011 0.428986,11.057 3.777562,5.022 z m -5.205541,5.4962 5.046051,18.8208 -0.631333,-12.873 z m 21.140642,0 -4.414317,5.9478 -0.631334,12.873 z m -23.687858,3.0839 -2.287053,6.2799 1.316968,9.546 z m 26.235274,0 0.970587,15.8259 1.316868,-9.546 z m -17.970224,4.6209 0.53297,13.753 1.199032,2.532 1.793429,-9.372 -0.586267,-2.953 z m 9.705675,0 -2.938862,3.96 -0.587171,2.953 1.79363,9.372 1.199433,-2.532 z m -21.451089,5.028 -4.469019,14.297 h 5.848518 c 0.124862,-0.124 0.266084,-0.231 0.419651,-0.318 z m 33.196504,0 -1.795637,13.949 c 0.17866,0.092 0.342265,0.209 0.484792,0.348 h 5.779362 z m -16.598352,1.791 -2.512487,12.384 c 0.04045,0.038 0.07939,0.076 0.116731,0.115 l 4.924101,-0.034 z"
       fill="#61c4d3"
       fill-rule="evenodd"
       id="path1"
       style="stroke-width:1.00185" /><g
       id="g16"><g
         id="g14"><path
           d="m 353.62155,56.8774 -7.23173,-23.4596 h -0.16863 c 0.0281,0.5586 0.0693,1.3964 0.12647,2.5136 0.0562,1.117 0.11141,2.318 0.16762,3.6027 0.0572,1.2568 0.0843,2.4023 0.0843,3.4353 v 13.908 H 340.9226 V 26.9663 h 8.66302 l 7.10526,22.8731 h 0.12647 l 7.52682,-22.8731 h 8.66202 v 29.9111 h -5.92892 v -14.159 c 0,-0.95 0.0141,-2.0392 0.0422,-3.2681 0.0552,-1.2288 0.0984,-2.3879 0.12546,-3.4771 0.0572,-1.1171 0.0984,-1.955 0.12647,-2.5136 h -0.16862 l -7.7366,23.4178 z"
           fill="#61c4d3"
           id="path10"
           style="stroke-width:1.00185" /><path
           d="M 396.7329,57.3104 H 379.25028 V 27.0508 h 17.48262 v 5.2551 h -11.05888 v 6.6536 h 10.29305 v 5.2559 h -10.29305 v 7.797 h 11.05888 z"
           fill="#61c4d3"
           id="path11"
           style="stroke-width:1.00185" /><path
           d="m 420.61618,48.7364 c 0,2.653 -0.96758,4.775 -2.90072,6.366 -1.90605,1.565 -4.6251,2.346 -8.15615,2.346 -3.16771,0 -5.99917,-0.6 -8.49339,-1.801 v -5.906 c 1.42928,0.615 2.90072,1.187 4.41431,1.718 1.54271,0.502 3.06935,0.753 4.58294,0.753 1.5688,0 2.6769,-0.293 3.32128,-0.88 0.67248,-0.613 1.00873,-1.382 1.00873,-2.303 0,-0.754 -0.26599,-1.397 -0.79896,-1.926 -0.50386,-0.531 -1.1904,-1.02 -2.05961,-1.467 -0.86821,-0.475 -1.86389,-0.978 -2.98503,-1.507 -0.70059,-0.336 -1.45739,-0.726 -2.27039,-1.173 -0.81301,-0.476 -1.59691,-1.048 -2.35471,-1.718 -0.72869,-0.6982 -1.33092,-1.536 -1.80768,-2.5134 -0.47676,-0.9774 -0.71464,-2.1502 -0.71464,-3.5186 0,-2.6808 0.91036,-4.7612 2.7331,-6.2412 1.82174,-1.508 4.3019,-2.262 7.44151,-2.262 1.5698,0 3.05529,0.1815 4.45647,0.5446 1.42928,0.363 2.91477,0.8796 4.45647,1.5498 l -2.05961,4.9428 c -1.37408,-0.5585 -2.60664,-0.9913 -3.69968,-1.2985 -1.09304,-0.3073 -2.21518,-0.4609 -3.36443,-0.4609 -1.20445,0 -2.12987,0.2794 -2.77426,0.8378 -0.64438,0.5585 -0.96757,1.2846 -0.96757,2.1782 0,1.0612 0.47676,1.899 1.43028,2.5133 0.95252,0.6143 2.36776,1.3684 4.2457,2.262 1.5417,0.726 2.84451,1.4801 3.91045,2.2611 1.09304,0.783 1.93315,1.704 2.52232,2.765 0.58818,1.062 0.88327,2.374 0.88327,3.938 z"
           fill="#61c4d3"
           id="path12"
           style="stroke-width:1.00185" /><path
           d="m 449.99979,56.8834 h -6.33743 v -12.88 h -11.8769 v 12.88 h -6.33742 V 27.0272 h 6.33742 v 11.7082 h 11.8769 V 27.0272 h 6.33743 z"
           fill="#61c4d3"
           id="path13"
           style="stroke-width:1.00185" /></g><g
         id="g15"><path
           d="m 125.51038,41.8374 c 0,3.022 -0.51992,5.663 -1.55775,7.922 -1.01074,2.233 -2.5143,3.975 -4.50867,5.227 -1.99437,1.253 -4.46751,1.879 -7.41842,1.879 -3.03321,0 -5.56156,-0.626 -7.58303,-1.879 -1.99437,-1.252 -3.48287,-3.008 -4.467512,-5.267 -0.983636,-2.26 -1.475454,-4.901 -1.475454,-7.923 0,-2.9942 0.491818,-5.6076 1.475454,-7.8399 0.984642,-2.2324 2.473142,-3.9747 4.467512,-5.227 2.02147,-1.2523 4.56387,-1.8784 7.62318,-1.8784 2.92481,0 5.3839,0.6261 7.37827,1.8784 1.99437,1.2251 3.49793,2.9674 4.50867,5.227 1.03783,2.2323 1.55775,4.8593 1.55775,7.8809 z m -23.11744,0 c 0,3.676 0.77887,6.575 2.33663,8.699 1.55676,2.096 3.98875,3.144 7.29597,3.144 3.33332,0 5.76531,-1.048 7.29597,-3.144 1.52965,-2.124 2.29448,-5.023 2.29448,-8.699 0,-3.6749 -0.76483,-6.5471 -2.29448,-8.616 -1.53066,-2.0962 -3.9486,-3.1444 -7.25582,-3.1444 -3.30522,0 -5.75126,1.0482 -7.33612,3.1444 -1.55776,2.0689 -2.33663,4.9411 -2.33663,8.616 z"
           fill="#61c4d3"
           id="path2"
           style="stroke-width:1.00185" /><path
           d="m 138.62787,27.3818 c 3.82313,0 6.60943,0.7483 8.35689,2.2448 1.74746,1.4966 2.62169,3.6053 2.62169,6.3263 0,1.6054 -0.36836,3.1156 -1.10508,4.5304 -0.71063,1.3881 -1.92512,2.5171 -3.64648,3.3881 -1.69326,0.87 -4.00179,1.305 -6.92359,1.305 h -3.35942 v 11.347 h -3.68663 V 27.3818 Z m -0.32821,3.1428 h -3.72778 v 11.5098 h 2.95091 c 2.78429,0 4.85996,-0.449 6.22601,-1.347 1.36605,-0.898 2.04857,-2.4216 2.04857,-4.5712 0,-1.8775 -0.60122,-3.2788 -1.80266,-4.2039 -1.20144,-0.9252 -3.09946,-1.3877 -5.69505,-1.3877 z"
           fill="#61c4d3"
           id="path3"
           style="stroke-width:1.00185" /><path
           d="m 171.17016,56.9544 h -16.63951 v -29.668 h 16.63951 v 3.2826 h -12.88664 v 9.2661 h 12.13586 v 3.2413 h -12.13586 v 10.595 h 12.88664 z"
           fill="#61c4d3"
           id="path4"
           style="stroke-width:1.00185" /><path
           d="M 199.80199,56.8054 H 195.4218 L 179.4889,32.1636 h -0.16561 c 0.0552,0.9696 0.12446,2.1747 0.20777,3.6153 0.0843,1.4405 0.12546,2.9227 0.12546,4.4463 v 16.5802 h -3.46179 v -29.67 h 4.33803 l 15.88974,24.559 h 0.16762 c -0.0281,-0.443 -0.0693,-1.108 -0.12446,-1.995 -0.0281,-0.886 -0.0703,-1.856 -0.12547,-2.909 -0.0281,-1.053 -0.0422,-2.021 -0.0422,-2.908 v -16.747 h 3.50395 z"
           fill="#61c4d3"
           id="path5"
           style="stroke-width:1.00185" /><path
           d="m 218.42482,29.645 c -3.23696,0 -5.78438,1.0796 -7.64225,3.239 -1.85686,2.1592 -2.78629,5.1177 -2.78629,8.8754 0,3.73 0.85817,6.688 2.57552,8.876 1.74444,2.159 4.34907,3.239 7.81087,3.239 1.32289,0 2.57552,-0.113 3.75789,-0.337 1.18136,-0.225 2.33463,-0.505 3.46179,-0.841 v 3.281 c -1.12716,0.421 -2.29347,0.729 -3.50495,0.925 -1.18237,0.196 -2.60363,0.295 -4.26376,0.295 -3.06834,0 -5.62981,-0.631 -7.68441,-1.893 -2.05459,-1.262 -3.60332,-3.057 -4.64416,-5.384 -1.01275,-2.328 -1.51962,-5.062 -1.51962,-8.203 0,-3.0287 0.54903,-5.6927 1.64608,-7.9922 1.12617,-2.3275 2.77326,-4.1363 4.94027,-5.4263 2.16701,-1.3179 4.79873,-1.9769 7.89518,-1.9769 3.17975,0 5.953,0.5888 8.31674,1.7667 l -1.51962,3.1968 c -0.92843,-0.4206 -1.97028,-0.7992 -3.12354,-1.1358 -1.12717,-0.3364 -2.36575,-0.5047 -3.71574,-0.5047 z"
           fill="#61c4d3"
           id="path6"
           style="stroke-width:1.00185" /><path
           d="M 230.97421,56.9534 V 27.1763 h 3.76793 v 26.4411 h 13.05927 v 3.336 z"
           fill="#61c4d3"
           id="path7"
           style="stroke-width:1.00185" /><path
           d="m 304.2069,26.9625 v 19.4429 c 0,2.077 -0.42156,3.957 -1.26668,5.639 -0.84513,1.656 -2.13991,2.974 -3.88637,3.956 -1.71735,0.955 -3.91447,1.431 -6.58835,1.431 -3.74685,0 -6.60441,-1.009 -8.5757,-3.029 -1.94318,-2.049 -2.91377,-4.742 -2.91377,-8.081 V 26.9625 h 3.80105 v 19.4849 c 0,2.441 0.64739,4.335 1.94318,5.682 1.3239,1.346 3.30923,2.02 5.95602,2.02 2.73109,0 4.70238,-0.715 5.91285,-2.146 1.23958,-1.459 1.85887,-3.325 1.85887,-5.598 V 26.9625 Z"
           fill="#61c4d3"
           id="path8"
           style="stroke-width:1.00185" /><path
           d="m 333.46906,41.7394 c 0,5.016 -1.37709,8.799 -4.13127,11.348 -2.72507,2.522 -6.53616,3.782 -11.43025,3.782 h -8.30269 V 27.1918 h 9.17792 c 3.00411,0 5.60372,0.5543 7.80184,1.6627 2.19712,1.1084 3.8944,2.7433 5.08982,4.9048 1.19541,2.1336 1.79463,4.7938 1.79463,7.9801 z m -3.96365,0.125 c 0,-3.9625 -0.98765,-6.8582 -2.96295,-8.6871 -1.9462,-1.8566 -4.71443,-2.7849 -8.30269,-2.7849 h -4.88004 v 23.276 h 4.04595 c 8.06582,0 12.09973,-3.934 12.09973,-11.804 z"
           fill="#61c4d3"
           id="path9"
           style="stroke-width:1.00185" /><path
           d="m 276.2616,41.7544 c 0,3.022 -0.51992,5.663 -1.55876,7.922 -1.01073,2.233 -2.51228,3.975 -4.50766,5.227 -1.99437,1.252 -4.46751,1.879 -7.41842,1.879 -3.03321,0 -5.56156,-0.627 -7.58303,-1.879 -1.99437,-1.252 -3.48388,-3.008 -4.46751,-5.267 -0.98364,-2.26 -1.47546,-4.901 -1.47546,-7.923 0,-2.9943 0.49182,-5.6078 1.47546,-7.8402 0.98363,-2.2323 2.47314,-3.9746 4.46751,-5.2269 2.02147,-1.2523 4.56287,-1.8785 7.62318,-1.8785 2.92381,0 5.3839,0.6262 7.37827,1.8785 1.99538,1.2251 3.49693,2.9674 4.50766,5.2269 1.03884,2.2324 1.55876,4.8594 1.55876,7.8812 z m -23.11744,0 c 0,3.675 0.77887,6.574 2.33663,8.698 1.55676,2.096 3.98875,3.145 7.29597,3.145 3.33232,0 5.76431,-1.049 7.29496,-3.145 1.53066,-2.124 2.29649,-5.023 2.29649,-8.698 0,-3.6751 -0.76583,-6.5472 -2.29649,-8.6162 -1.53065,-2.0963 -3.94759,-3.1443 -7.25481,-3.1443 -3.30522,0 -5.75126,1.048 -7.33612,3.1443 -1.55776,2.069 -2.33663,4.9411 -2.33663,8.6162 z"
           fill="#61c4d3"
           id="path14"
           style="stroke-width:1.00185" /></g></g></g></svg>
